HIERARCHY
ROOT hip
{
	OFFSET 0.000000 0.000000 0.000000
	CHANNELS 6 Xposition Yposition Zposition Xrotation Zrotation Yrotation 
	JOINT abdomen
	{
		OFFSET 0.000000 3.422050 0.000000
		CHANNELS 3 Xrotation Zrotation Yrotation 
		JOINT chest
		{
			OFFSET 0.000000 8.486693 -0.684411
			CHANNELS 3 Xrotation Zrotation Yrotation 
			JOINT neck
			{
				OFFSET 0.000000 10.266162 -0.273764
				CHANNELS 3 Xrotation Zrotation Yrotation 
				JOINT head
				{
					OFFSET 0.000000 3.148285 0.000000
					CHANNELS 3 Xrotation Zrotation Yrotation 
					End Site
					{
						OFFSET 0.000000 3.148289 0.000000
					}
				}
			}
			JOINT lCollar
			{
				OFFSET 3.422053 6.707223 -0.821293
				CHANNELS 3 Yrotation Zrotation Xrotation 
				JOINT lShldr
				{
					OFFSET 3.285171 0.000000 0.000000
					CHANNELS 3 Zrotation Yrotation Xrotation 
					JOINT lForeArm
					{
						OFFSET 10.129278 0.000000 0.000000
						CHANNELS 3 Yrotation Zrotation Xrotation 
						JOINT lHand
						{
							OFFSET 8.486692 0.000000 0.000000
							CHANNELS 3 Zrotation Yrotation Xrotation 
							End Site
							{
								OFFSET 4.106464 0.000000 0.000000
							}
						}
					}
				}
			}
			JOINT rCollar
			{
				OFFSET -3.558935 6.707223 -0.821293
				CHANNELS 3 Yrotation Zrotation Xrotation 
				JOINT rShldr
				{
					OFFSET -3.148289 0.000000 0.000000
					CHANNELS 3 Zrotation Yrotation Xrotation 
					JOINT rForeArm
					{
						OFFSET -10.266159 0.000000 0.000000
						CHANNELS 3 Yrotation Zrotation Xrotation 
						JOINT rHand
						{
							OFFSET -8.349810 0.000000 0.000000
							CHANNELS 3 Zrotation Yrotation Xrotation 
							End Site
							{
								OFFSET -4.106464 0.000000 0.000000
							}
						}
					}
				}
			}
		}
	}
	JOINT lThigh
	{
		OFFSET 5.338403 -1.642589 1.368821
		CHANNELS 3 Xrotation Zrotation Yrotation 
		JOINT lShin
		{
			OFFSET -2.053232 -20.121670 0.000000
			CHANNELS 3 Xrotation Zrotation Yrotation 
			JOINT lFoot
			{
				OFFSET 0.000000 -19.300380 -1.231939
				CHANNELS 3 Xrotation Yrotation Zrotation 
				End Site
				{
					OFFSET 0.000000 -2.463878 4.653993
				}
			}
		}
	}
	JOINT rThigh
	{
		OFFSET -5.338403 -1.642589 1.368821
		CHANNELS 3 Xrotation Zrotation Yrotation 
		JOINT rShin
		{
			OFFSET 2.053232 -20.121670 0.000000
			CHANNELS 3 Xrotation Zrotation Yrotation 
			JOINT rFoot
			{
				OFFSET 0.000000 -19.300380 -1.231939
				CHANNELS 3 Xrotation Yrotation Zrotation 
				End Site
				{
					OFFSET 0.000000 -2.463878 4.653993
				}
			}
		}
	}
}
MOTION
Frames: 11
Frame Time: 0.025000
0.000000 43.528500 0.000000 0.000000 0.000000 0.000000 0.000000 0.000000 0.000000 0.000000 0.000000 0.000000 0.000000 0.000000 0.000000 0.000000 0.000000 0.000000 0.000000 0.000000 0.000000 0.000000 0.000000 0.000000 0.000000 0.000000 0.000000 0.000000 0.000000 0.000000 0.000000 0.000000 0.000000 0.000000 0.000000 0.000000 0.000000 0.000000 0.000000 0.000000 0.000000 0.000000 0.000000 0.000000 0.000000 0.000000 0.000000 0.000000 0.000000 0.000000 0.000000 0.000000 0.000000 0.000000 0.000000 0.000000 0.000000 0.000000 0.000000 0.000000 
-0.459583 9.763462 8.209206 -90.499718 89.865082 88.377281 11.756727 -2.238269 -1.192182 11.065551 4.298163 0.052648 -10.002190 0.000000 0.000000 1.998697 0.000000 0.000000 -0.514467 -7.788367 -24.955179 -79.003838 -38.002338 30.001671 -13.613003 -37.450130 -5.824604 -39.939232 -11.868140 11.536119 5.094186 -12.868773 -24.886690 57.915920 54.062489 7.958968 73.239159 12.512345 -53.465096 36.850285 9.186805 -1.276356 -6.327846 9.041407 7.257311 54.068314 -0.135898 -3.947105 42.552479 1.418686 0.072438 -40.213474 -20.308283 -1.270194 83.696877 61.411385 -14.265561 24.359018 3.279018 4.779066 
-0.489158 9.662722 7.999870 -42.378376 89.754829 136.377029 10.300279 -2.238367 -1.192167 11.065551 4.298163 0.052648 -7.872097 0.675409 -0.155259 3.073396 0.000000 0.000000 -1.497894 -7.730415 -23.856489 -77.748146 -37.268814 28.745962 -18.021673 -34.968212 -6.202625 -41.158554 -11.499971 10.996966 3.518638 -12.616522 -24.240765 58.643105 53.918179 8.606037 73.842239 12.766960 -53.590588 37.384140 9.434226 -2.009862 -5.773824 9.039626 7.283086 53.547867 -0.201772 -3.945197 42.552483 1.418686 0.072438 -39.851505 -20.459940 -1.230063 83.696899 61.411392 -14.265557 24.262573 3.735827 4.952424 
-0.518733 9.561980 7.790534 -25.289291 89.509636 153.288315 8.841223 -2.238464 -1.192149 11.065551 4.298162 0.052648 -5.734281 1.359048 -0.285836 4.149141 0.000000 0.000000 -2.484204 -7.691103 -22.754789 -76.523109 -36.512814 27.520922 -22.307842 -32.456596 -6.342855 -42.382069 -11.142484 10.449623 1.937199 -12.381042 -23.586695 59.365063 53.769032 9.247802 74.446709 13.020355 -53.718983 37.915596 9.688586 -2.742161 -5.219664 9.037598 7.308851 53.027287 -0.267642 -3.942688 42.552479 1.418686 0.072438 -39.489223 -20.611849 -1.190913 83.696869 61.411381 -14.265560 24.164673 4.192436 5.126684 
-0.548308 9.461240 7.581198 -17.981113 89.099472 160.315704 7.380026 -2.238561 -1.192129 11.065551 4.298163 0.052648 -3.589751 2.049506 -0.391175 5.225741 0.000000 0.000000 -3.472713 -7.670576 -21.650764 -75.328728 -35.735336 26.326532 -26.482067 -29.938601 -6.262133 -43.609386 -10.796036 9.894444 0.350716 -12.162785 -22.925209 60.081673 53.615124 9.884138 75.052567 13.272490 -53.850311 38.444473 9.949796 -3.473110 -4.665394 9.035326 7.334598 52.506615 -0.333499 -3.939581 42.552479 1.418686 0.072438 -39.126652 -20.764002 -1.152745 83.696877 61.411385 -14.265561 24.065306 4.648823 5.301865 
-0.577882 9.360498 7.371862 -13.899757 88.350502 163.891586 5.917161 -2.238657 -1.192107 11.065551 4.298163 0.052648 -1.439527 2.745327 -0.470809 6.303008 0.000000 0.000000 -4.462728 -7.668940 -20.545097 -74.164856 -34.937424 25.162655 -30.553862 -27.436680 -5.977794 -44.840149 -10.460964 9.331801 -1.239936 -11.962161 -22.257086 60.792824 53.456539 10.514920 75.659775 13.523311 -53.984520 38.970650 10.217771 -4.202573 -4.111038 9.032804 7.360326 51.985855 -0.399334 -3.935875 42.552479 1.418686 0.072438 -38.763786 -20.916393 -1.115569 83.696899 61.411392 -14.265557 23.964453 5.104962 5.477982 
-0.607457 9.259758 7.162527 -10.948244 86.596832 165.664261 4.453100 -2.238753 -1.192083 11.065551 4.298162 0.052648 0.715364 3.445018 -0.524365 7.380751 0.000000 0.000000 -5.453553 -7.686261 -19.438499 -73.031281 -34.120090 24.029064 -34.531376 -24.971960 -5.507355 -46.073929 -10.137590 8.762082 -2.833860 -11.779529 -21.583105 61.498356 53.293297 11.140022 76.268326 13.772768 -54.121628 39.493965 10.492418 -4.930415 -3.556623 9.030037 7.386031 51.465023 -0.465139 -3.931569 42.552475 1.418685 0.072438 -38.400650 -21.069017 -1.079385 83.696869 61.411381 -14.265560 23.862112 5.560834 5.655053 
-0.637032 9.159017 6.953191 -6.413296 77.895409 164.324799 2.988322 -2.238848 -1.192055 11.065550 4.298162 0.052648 2.873889 4.147051 -0.551566 8.458778 0.000000 0.000000 -6.444483 -7.722568 -18.331667 -71.927673 -33.284332 22.925440 -38.837025 -22.488886 -5.837307 -47.310341 -9.826219 8.185693 -4.430132 -11.615196 -20.904076 62.198212 53.125492 11.759350 76.878212 14.020821 -54.261631 40.014290 10.773641 -5.656505 -3.002176 9.027023 7.411707 50.944157 -0.530908 -3.926666 42.552475 1.418685 0.072438 -38.037220 -21.221853 -1.044203 83.696877 61.411385 -14.265555 23.758263 6.016413 5.833094 
-0.666607 9.058276 6.743855 165.906647 75.915733 -5.693070 1.523303 -2.238943 -1.192026 11.065551 4.298163 0.052648 5.035015 4.849885 -0.552233 9.536903 0.000000 0.000000 -7.434817 -7.777843 -17.225300 -70.853630 -32.431160 21.851395 -43.078106 -19.976540 -5.962654 -48.548950 -9.527128 7.603049 -6.027824 -11.469423 -20.220842 62.892246 52.953171 12.372801 77.489388 14.267419 -54.404488 40.531475 11.061336 -6.380713 -2.447722 9.023767 7.437357 50.423275 -0.596629 -3.921165 42.552479 1.418686 0.072438 -37.673500 -21.374895 -1.010024 83.696877 61.411385 -14.265561 23.652901 6.471678 6.012128 
-0.696182 8.957535 6.534519 169.719757 84.612709 -7.769958 0.058524 -2.239036 -1.191993 11.065551 4.298163 0.052648 7.197696 5.551970 -0.526287 10.614936 0.000000 0.000000 -8.423854 -7.852031 -16.120100 -69.808746 -31.561584 20.806496 -47.258381 -17.457798 -5.890800 -49.789330 -9.240582 7.014585 -7.625982 -11.342405 -19.534233 63.580429 52.776440 12.980289 78.101852 14.512516 -54.550220 41.045395 11.355393 -7.102917 -1.893289 9.020265 7.462970 49.902370 -0.662297 -3.915066 42.552486 1.418686 0.072438 -37.309509 -21.528137 -0.976856 83.696877 61.411392 -14.265567 23.546005 6.926601 6.192164 
-0.725756 8.856794 6.325184 170.987473 86.367516 -7.682146 -1.405536 -2.239130 -1.191959 11.065551 4.298163 0.052648 9.360879 6.251751 -0.473752 11.692677 0.000000 0.000000 -9.410900 -7.945037 -15.016772 -68.792480 -30.676559 19.790213 -51.381447 -14.955164 -5.630711 -51.031013 -8.966814 6.420738 -9.223652 -11.234289 -18.845104 64.262619 52.595341 13.581723 78.715591 14.756069 -54.698799 41.555904 11.655702 -7.822995 -1.338900 9.016517 7.488547 49.381508 -0.727903 -3.908372 42.552479 1.418686 0.072438 -36.945236 -21.681562 -0.944702 83.696877 61.411392 -14.265567 23.437569 7.381164 6.373228 
